<svg xmlns="http://www.w3.org/2000/svg" xmlns:xlink="http://www.w3.org/1999/xlink" width="327.95" height="139.78" viewBox="0 0 327.95 139.78"><defs><style>.cls-1{fill:none;}.cls-2{isolation:isolate;}.cls-3,.cls-8{fill:#fff;}.cls-3{stroke:#489c97;stroke-miterlimit:10;stroke-width:5px;}.cls-4{fill:#d0d0d4;}.cls-5{fill:#8ebd00;}.cls-6{clip-path:url(#clip-path);}.cls-7{fill:#134200;mix-blend-mode:multiply;opacity:0.1;}.cls-9{fill:#262626;}.cls-10{fill:#bababd;}</style><clipPath id="clip-path"><path class="cls-1" d="M98.1,60.24V54a28.22,28.22,0,1,0-56.42-1v7.23h-1.2A2.52,2.52,0,0,0,38,62.77V82.9a31.93,31.93,0,0,0,31.93,31.93h0A31.94,31.94,0,0,0,101.83,82.9V62.77a2.53,2.53,0,0,0-2.53-2.53ZM51.36,53a18.53,18.53,0,0,1,37.06,0v7.23H51.36Z"/></clipPath></defs><g class="cls-2"><g id="Layer_2" data-name="Layer 2"><g id="Layer_2-2" data-name="Layer 2"><path class="cls-3" d="M278.81,23.25H118.51a67.39,67.39,0,1,0,0,93.28h160.3a46.64,46.64,0,0,0,46.64-46.64h0A46.64,46.64,0,0,0,278.81,23.25Z"/><path class="cls-4" d="M98.1,60.4H88.42V53a18.53,18.53,0,0,0-37.06,0V60.4H41.68V53A28.21,28.21,0,1,1,98.1,53Z"/><path class="cls-5" d="M41.27,60.24H98.51a3.31,3.31,0,0,1,3.31,3.31V82.9a31.93,31.93,0,0,1-31.93,31.93h0A31.93,31.93,0,0,1,38,82.9V63.56A3.31,3.31,0,0,1,41.27,60.24Z"/><g class="cls-6"><rect class="cls-7" x="69.89" y="60.24" width="31.93" height="54.59"/></g><polygon class="cls-8" points="67.05 98.39 52.05 84.33 58.45 78.33 67.05 86.39 84.33 70.19 90.73 76.19 67.05 98.39"/><path class="cls-9" d="M141.29,61a18.25,18.25,0,0,1-2.58-1.21,7.48,7.48,0,0,1-1.94-1.56,6.42,6.42,0,0,1-1.24-2.17,10.29,10.29,0,0,1,.29-6.84,7.56,7.56,0,0,1,2.09-2.77,9.13,9.13,0,0,1,3.25-1.69,14.86,14.86,0,0,1,4.27-.57,20.58,20.58,0,0,1,4,.38,30,30,0,0,1,3.95,1.1,15.08,15.08,0,0,1-1.35,4.81L150.77,50a13.33,13.33,0,0,0-1.39-.42,16.24,16.24,0,0,0-1.67-.27,19,19,0,0,0-2.11-.11,9.1,9.1,0,0,0-1.46.13,4,4,0,0,0-1.33.46,2.67,2.67,0,0,0-1,1,3.38,3.38,0,0,0-.38,1.71,3.13,3.13,0,0,0,.29,1.41,2.92,2.92,0,0,0,.81,1,4.92,4.92,0,0,0,1.14.68l1.26.53,2.54,1a31,31,0,0,1,2.91,1.31A8,8,0,0,1,152.63,60,7.1,7.1,0,0,1,154,62.4a10.35,10.35,0,0,1,.51,3.48,9.64,9.64,0,0,1-.78,3.93,8.38,8.38,0,0,1-2.26,3,10.65,10.65,0,0,1-3.65,2,15.94,15.94,0,0,1-5,.72q-1.4,0-2.49-.09c-.73-.06-1.43-.15-2.09-.27a18.71,18.71,0,0,1-2-.49c-.65-.2-1.33-.44-2-.72a18.12,18.12,0,0,1,.46-2.55c.23-.89.5-1.78.81-2.68a22,22,0,0,0,3.33,1.07,14.87,14.87,0,0,0,3.34.36,7.6,7.6,0,0,0,4.18-1,3.37,3.37,0,0,0,1.52-3,3.55,3.55,0,0,0-.36-1.69,3.7,3.7,0,0,0-.93-1.14,5.54,5.54,0,0,0-1.29-.78c-.48-.21-1-.41-1.47-.61Z"/><path class="cls-9" d="M159,44.69h17.23a13,13,0,0,1,.26,2.57,13.41,13.41,0,0,1-.26,2.66H165.15v6.59h8.78a14.1,14.1,0,0,1,.26,2.62,13.87,13.87,0,0,1-.26,2.66h-8.78v8h11.36a13.12,13.12,0,0,1,.25,2.58,13.49,13.49,0,0,1-.25,2.66H159Z"/><path class="cls-9" d="M201.47,69.31a17.13,17.13,0,0,1,.9,2.42,16.86,16.86,0,0,1,.53,2.52,20.32,20.32,0,0,1-4,1,26.31,26.31,0,0,1-3.78.26,15.72,15.72,0,0,1-6.29-1.17,12.47,12.47,0,0,1-4.54-3.25,13.72,13.72,0,0,1-2.76-5,20.17,20.17,0,0,1-.93-6.25,19.53,19.53,0,0,1,1-6.27,14.46,14.46,0,0,1,2.81-5,12.68,12.68,0,0,1,4.51-3.3,15,15,0,0,1,6.11-1.18,25.36,25.36,0,0,1,3.73.25,16.28,16.28,0,0,1,3.7,1.06A9.53,9.53,0,0,1,202,48q-.42,1.2-.93,2.43a17.87,17.87,0,0,0-2.62-.72,15.1,15.1,0,0,0-2.7-.21,7.62,7.62,0,0,0-6.23,2.64q-2.18,2.64-2.17,7.83,0,10.31,8.74,10.3a15,15,0,0,0,2.75-.21A19.46,19.46,0,0,0,201.47,69.31Z"/><path class="cls-9" d="M207.33,44.69a14.74,14.74,0,0,1,1.57-.17c.5,0,1,0,1.56,0s1,0,1.48,0a14.84,14.84,0,0,1,1.56.17V60.44a42.62,42.62,0,0,0,.19,4.41,9.43,9.43,0,0,0,.76,3,3.88,3.88,0,0,0,1.6,1.78,5.69,5.69,0,0,0,2.69.56,5.56,5.56,0,0,0,2.66-.56A4,4,0,0,0,223,67.89a9.43,9.43,0,0,0,.76-3,42.62,42.62,0,0,0,.19-4.41V44.69c.56-.09,1.1-.14,1.6-.17s1,0,1.48,0,1,0,1.54,0a14.82,14.82,0,0,1,1.59.17V61.75a28.79,28.79,0,0,1-.51,5.63,10.93,10.93,0,0,1-1.82,4.37,8.48,8.48,0,0,1-3.5,2.81,16,16,0,0,1-11.15,0,8.48,8.48,0,0,1-3.5-2.81,10.93,10.93,0,0,1-1.82-4.37,28.79,28.79,0,0,1-.51-5.63Z"/><path class="cls-9" d="M236.13,44.69c1.24-.14,2.4-.26,3.49-.36s2.28-.15,3.61-.15a25,25,0,0,1,4.58.42,12.37,12.37,0,0,1,4.08,1.5A8.5,8.5,0,0,1,254.82,49a8.83,8.83,0,0,1,1.12,4.67,9.61,9.61,0,0,1-.42,3,9.29,9.29,0,0,1-1.08,2.26A9.45,9.45,0,0,1,253,60.59a10.66,10.66,0,0,1-1.43,1.12l-.72.46L258.26,75l-1.77.17c-.62,0-1.26.08-1.9.08a19.65,19.65,0,0,1-3.17-.25L243.48,60.9l1-.5c.39-.2.87-.45,1.43-.76a8.78,8.78,0,0,0,1.63-1.17,6.37,6.37,0,0,0,1.33-1.68,4.89,4.89,0,0,0,.55-2.35,4.76,4.76,0,0,0-1.52-3.9A6,6,0,0,0,244,49.29a9.75,9.75,0,0,0-1.69.13V75.05l-1.52.15c-.51,0-1,.06-1.48.06s-1,0-1.52,0-1.08-.09-1.65-.17Z"/><path class="cls-9" d="M261.64,44.69h17.23a13,13,0,0,1,.25,2.57,13.42,13.42,0,0,1-.25,2.66H267.81v6.59h8.78a14.06,14.06,0,0,1,.25,2.62,13.86,13.86,0,0,1-.25,2.66h-8.78v8h11.35a13.13,13.13,0,0,1,.26,2.58,13.48,13.48,0,0,1-.26,2.66H261.64Z"/><path class="cls-10" d="M137.25,90.66a8.51,8.51,0,0,1-1.17-.56,3.13,3.13,0,0,1-.89-.71,2.85,2.85,0,0,1-.57-1,4.14,4.14,0,0,1-.2-1.4,4.27,4.27,0,0,1,.33-1.73,3.48,3.48,0,0,1,1-1.27,4.13,4.13,0,0,1,1.49-.77,6.92,6.92,0,0,1,2-.26,9.75,9.75,0,0,1,1.84.17,16.6,16.6,0,0,1,1.81.5,7.1,7.1,0,0,1-.62,2.21l-.59-.24a5.36,5.36,0,0,0-.64-.19,6.76,6.76,0,0,0-.76-.12,7,7,0,0,0-1,0,3.77,3.77,0,0,0-.66.06,1.7,1.7,0,0,0-.61.21,1.12,1.12,0,0,0-.44.45,1.5,1.5,0,0,0-.18.78,1.39,1.39,0,0,0,.14.65,1.29,1.29,0,0,0,.36.44,2,2,0,0,0,.53.31l.58.25,1.15.44a13,13,0,0,1,1.34.6,3.53,3.53,0,0,1,1,.76,3.24,3.24,0,0,1,.65,1.1,4.88,4.88,0,0,1,.23,1.6,4.37,4.37,0,0,1-.36,1.79,3.83,3.83,0,0,1-1,1.39,4.87,4.87,0,0,1-1.67.91,7.31,7.31,0,0,1-2.29.33c-.43,0-.81,0-1.14,0a9.66,9.66,0,0,1-1-.13,6.8,6.8,0,0,1-.89-.22q-.45-.14-.93-.33a9.06,9.06,0,0,1,.21-1.17c.1-.4.23-.81.37-1.22a10.21,10.21,0,0,0,1.52.49,6.83,6.83,0,0,0,1.53.17,3.48,3.48,0,0,0,1.91-.46,1.52,1.52,0,0,0,.7-1.38,1.6,1.6,0,0,0-.17-.77,1.66,1.66,0,0,0-.42-.52,2.52,2.52,0,0,0-.59-.36l-.68-.28Z"/><path class="cls-10" d="M147.39,90.66a8.51,8.51,0,0,1-1.17-.56,3.13,3.13,0,0,1-.89-.71,2.85,2.85,0,0,1-.57-1,4.13,4.13,0,0,1-.21-1.4,4.27,4.27,0,0,1,.34-1.73,3.48,3.48,0,0,1,1-1.27,4.13,4.13,0,0,1,1.49-.77,6.87,6.87,0,0,1,1.95-.26,9.75,9.75,0,0,1,1.84.17,16.6,16.6,0,0,1,1.81.5,7.1,7.1,0,0,1-.62,2.21l-.59-.24a5.36,5.36,0,0,0-.64-.19,6.76,6.76,0,0,0-.76-.12,7.12,7.12,0,0,0-1,0,3.68,3.68,0,0,0-.66.06,1.7,1.7,0,0,0-.61.21,1.21,1.21,0,0,0-.45.45,1.61,1.61,0,0,0-.17.78,1.39,1.39,0,0,0,.14.65,1.29,1.29,0,0,0,.36.44,2.11,2.11,0,0,0,.52.31l.58.25,1.16.44a12,12,0,0,1,1.33.6,3.58,3.58,0,0,1,1,.76,3.24,3.24,0,0,1,.65,1.1,4.88,4.88,0,0,1,.23,1.6,4.37,4.37,0,0,1-.36,1.79,3.83,3.83,0,0,1-1,1.39,4.87,4.87,0,0,1-1.67.91,7.31,7.31,0,0,1-2.29.33c-.43,0-.81,0-1.14,0a8.91,8.91,0,0,1-1-.13,7.37,7.37,0,0,1-.9-.22c-.29-.09-.6-.2-.92-.33a9.06,9.06,0,0,1,.21-1.17c.1-.4.23-.81.37-1.22a10.21,10.21,0,0,0,1.52.49,6.83,6.83,0,0,0,1.53.17,3.48,3.48,0,0,0,1.91-.46,1.54,1.54,0,0,0,.7-1.38,1.6,1.6,0,0,0-.17-.77,1.66,1.66,0,0,0-.42-.52,2.52,2.52,0,0,0-.59-.36l-.68-.28Z"/><path class="cls-10" d="M155.48,83.2a8.4,8.4,0,0,1,1.38-.12,8.76,8.76,0,0,1,1.41.12V94.65h4.8a4.94,4.94,0,0,1,.08.63c0,.2,0,.39,0,.57s0,.41,0,.61a4.94,4.94,0,0,1-.08.63h-7.59Z"/><path class="cls-10" d="M169.25,83.2h7.88a5.83,5.83,0,0,1,.12,1.18,6.08,6.08,0,0,1-.12,1.22h-5.06v3h4a6.26,6.26,0,0,1,.12,1.2,6.13,6.13,0,0,1-.12,1.21h-4v3.67h5.2a5.82,5.82,0,0,1,.11,1.18,6.09,6.09,0,0,1-.11,1.22h-8Z"/><path class="cls-10" d="M179.51,83.2a5.82,5.82,0,0,1,1.14-.12,6.42,6.42,0,0,1,1.2.12l5.36,8.85V83.2a7.94,7.94,0,0,1,1.34-.12,5.57,5.57,0,0,1,1.16.12V97.09a6.92,6.92,0,0,1-1.12.11,7.2,7.2,0,0,1-1.18-.11L182,88.26v8.83a7.47,7.47,0,0,1-1.26.11,7.12,7.12,0,0,1-1.23-.11Z"/><path class="cls-10" d="M201.58,94.46a7.44,7.44,0,0,1,.42,1.11,7.58,7.58,0,0,1,.24,1.15,9.61,9.61,0,0,1-1.81.48,11.65,11.65,0,0,1-1.73.12,7.28,7.28,0,0,1-2.87-.53,5.74,5.74,0,0,1-2.08-1.49A6.28,6.28,0,0,1,192.49,93a9,9,0,0,1-.43-2.86,8.9,8.9,0,0,1,.45-2.87A6.52,6.52,0,0,1,193.79,85a5.72,5.72,0,0,1,2.07-1.51,6.81,6.81,0,0,1,2.79-.54,12.94,12.94,0,0,1,1.71.11,7.47,7.47,0,0,1,1.69.49,4.47,4.47,0,0,1-.24,1.13c-.12.36-.27.73-.42,1.11a7.36,7.36,0,0,0-1.2-.33,7.28,7.28,0,0,0-1.23-.1,3.49,3.49,0,0,0-2.85,1.21,5.48,5.48,0,0,0-1,3.58q0,4.71,4,4.71a7.84,7.84,0,0,0,1.26-.09A9.77,9.77,0,0,0,201.58,94.46Z"/><path class="cls-10" d="M204.48,83.2l1.59-.16c.5-.05,1.05-.07,1.65-.07a11.31,11.31,0,0,1,2.1.19,5.6,5.6,0,0,1,1.86.69A3.79,3.79,0,0,1,213,85.18a4,4,0,0,1,.52,2.13,4.39,4.39,0,0,1-.2,1.37,4.27,4.27,0,0,1-.49,1,4.06,4.06,0,0,1-.65.76,5.11,5.11,0,0,1-.65.51l-.33.22,3.38,5.87-.81.07a8.44,8.44,0,0,1-.87,0,10,10,0,0,1-1.45-.11l-3.63-6.45.46-.24L209,90a4,4,0,0,0,.74-.53,3,3,0,0,0,.61-.78,2.56,2.56,0,0,0-.44-2.85,2.77,2.77,0,0,0-1.8-.57,6,6,0,0,0-.77,0V97.09l-.7.06-.67,0c-.22,0-.45,0-.7,0s-.49,0-.75-.07Z"/><path class="cls-10" d="M218.92,92.12,214.6,83.2a11,11,0,0,1,1.62-.12,9.11,9.11,0,0,1,1.47.12l2.74,6.3,2.7-6.3a8.93,8.93,0,0,1,1.47-.12,10,10,0,0,1,1.49.12l-4.33,8.92v5c-.25,0-.5.06-.73.07s-.47,0-.7,0-.44,0-.68,0-.48,0-.73-.07Z"/><path class="cls-10" d="M227.63,83.14c.6,0,1.19-.09,1.8-.12s1.22,0,1.83,0a10.09,10.09,0,0,1,2,.19,4.78,4.78,0,0,1,1.8.73,3.89,3.89,0,0,1,1.3,1.47,5.17,5.17,0,0,1,.51,2.46,5.11,5.11,0,0,1-.51,2.44A4.05,4.05,0,0,1,235,91.74a4.78,4.78,0,0,1-1.77.73,9.76,9.76,0,0,1-1.92.19h-.47a2.77,2.77,0,0,1-.42,0v4.47c-.24,0-.48.06-.71.07s-.46,0-.68,0-.43,0-.67,0-.5,0-.76-.07Zm2.82,7.15a3.59,3.59,0,0,0,.44,0h.49a3.4,3.4,0,0,0,1-.13,2.18,2.18,0,0,0,.82-.41,2.15,2.15,0,0,0,.57-.77,2.85,2.85,0,0,0,.21-1.17,3.07,3.07,0,0,0-.21-1.2,2.15,2.15,0,0,0-.57-.79,2.09,2.09,0,0,0-.82-.43,3.81,3.81,0,0,0-1-.12H231l-.53,0Z"/><path class="cls-10" d="M241.6,85.6h-3.46a6.08,6.08,0,0,1-.12-1.22,5.83,5.83,0,0,1,.12-1.18h9.75a5.83,5.83,0,0,1,.12,1.18,6.08,6.08,0,0,1-.12,1.22h-3.45V97.09l-.7.06-.68,0c-.22,0-.45,0-.7,0s-.51,0-.76-.07Z"/><path class="cls-10" d="M249.84,83.2a8.57,8.57,0,0,1,1.41-.12,8.9,8.9,0,0,1,1.43.12V97.09a10,10,0,0,1-1.41.11,9.84,9.84,0,0,1-1.43-.11Z"/><path class="cls-10" d="M261,97.32a6.25,6.25,0,0,1-2.7-.54,5,5,0,0,1-1.87-1.5,6.53,6.53,0,0,1-1.1-2.26,11.13,11.13,0,0,1-.35-2.85,11.4,11.4,0,0,1,.35-2.87,6.54,6.54,0,0,1,1.1-2.28,5,5,0,0,1,1.87-1.51,7,7,0,0,1,5.41,0A5,5,0,0,1,265.62,85a6.52,6.52,0,0,1,1.09,2.28,11,11,0,0,1,.36,2.87,10.69,10.69,0,0,1-.36,2.85,6.51,6.51,0,0,1-1.09,2.26,5,5,0,0,1-1.87,1.5A6.27,6.27,0,0,1,261,97.32ZM261,95c2,0,3-1.59,3-4.79a7.11,7.11,0,0,0-.73-3.59,2.44,2.44,0,0,0-2.25-1.2q-3,0-3,4.79C258,93.37,259,95,261,95Z"/><path class="cls-10" d="M269.4,83.2a5.82,5.82,0,0,1,1.14-.12,6.26,6.26,0,0,1,1.2.12l5.37,8.85V83.2a7.82,7.82,0,0,1,1.33-.12,5.5,5.5,0,0,1,1.16.12V97.09a6.82,6.82,0,0,1-1.12.11,7.4,7.4,0,0,1-1.18-.11l-5.4-8.83v8.83a7.66,7.66,0,0,1-1.26.11,7.24,7.24,0,0,1-1.24-.11Z"/></g></g></g></svg>